# xmcd CD database file
#
# Track frame offsets:
#	150
#	15942
#	26992
#	43061
#	56085
#	66777
#	80715
#	95401
#	110310
#	134531
#	153827
#	163590
#
# Disc length: 2370 seconds
#
# Revision: 0
# Processed by: cddbd v1.5.2PL0 Copyright (c) Steve Scherf et al.
# Submitted via: CDex 1.70
#
DISCID=9909400c
DTITLE=Hee Haw Pickin' Band - Just Honky Tonk
DYEAR=2013
DGENRE=Country
TTITLE0=Ramblin Fever
TTITLE1=Walking Shoes
TTITLE2=White Line Fever
TTITLE3=Tiger By The Tail
TTITLE4=Hello Trouble
TTITLE5=Wasteland
TTITLE6=Jailhouse Now
TTITLE7=Slow Rollin' Low
TTITLE8=Sunday Morning Coming Down
TTITLE9=Swinging Doors
TTITLE10=Rubberband
TTITLE11=Where Does Ttime Go
EXTD=YEAR: 2013
EXTT0=
EXTT1=
EXTT2=
EXTT3=
EXTT4=
EXTT5=
EXTT6=
EXTT7=
EXTT8=
EXTT9=
EXTT10=
EXTT11=
PLAYORDER=
